<mxfile host="app.diagrams.net" agent="Mozilla/5.0 (Macintosh; Intel Mac OS X 10_15_7) AppleWebKit/605.1.15 (KHTML, like Gecko) Version/18.5 Safari/605.1.15" version="27.2.0">
  <diagram name="PÃ¡gina-1" id="qVz_wMY-SLJ3WQSzj0xh">
    <mxGraphModel grid="1" page="1" gridSize="10" guides="1" tooltips="1" connect="1" arrows="1" fold="1" pageScale="1" pageWidth="827" pageHeight="1169" math="0" shadow="0">
      <root>
        <mxCell id="0" />
        <mxCell id="1" parent="0" />
        <mxCell id="b1VcHCO6YZUFTfwH8kM3-227" value="USER" style="shape=table;startSize=25;container=1;collapsible=0;childLayout=tableLayout;fixedRows=1;rowLines=1;fontStyle=1;align=center;resizeLast=1;" vertex="1" parent="1">
          <mxGeometry x="366" y="20" width="194" height="214" as="geometry" />
        </mxCell>
        <mxCell id="b1VcHCO6YZUFTfwH8kM3-228" style="shape=tableRow;horizontal=0;startSize=0;swimlaneHead=0;swimlaneBody=0;fillColor=none;collapsible=0;dropTarget=0;points=[[0,0.5],[1,0.5]];portConstraint=eastwest;top=0;left=0;right=0;bottom=0;" vertex="1" parent="b1VcHCO6YZUFTfwH8kM3-227">
          <mxGeometry y="25" width="194" height="47" as="geometry" />
        </mxCell>
        <mxCell id="b1VcHCO6YZUFTfwH8kM3-229" value="int" style="shape=partialRectangle;connectable=0;fillColor=none;top=0;left=0;bottom=0;right=0;align=left;spacingLeft=2;overflow=hidden;fontSize=11;" vertex="1" parent="b1VcHCO6YZUFTfwH8kM3-228">
          <mxGeometry width="36" height="47" as="geometry">
            <mxRectangle width="36" height="47" as="alternateBounds" />
          </mxGeometry>
        </mxCell>
        <mxCell id="b1VcHCO6YZUFTfwH8kM3-230" value="id" style="shape=partialRectangle;connectable=0;fillColor=none;top=0;left=0;bottom=0;right=0;align=left;spacingLeft=2;overflow=hidden;fontSize=11;" vertex="1" parent="b1VcHCO6YZUFTfwH8kM3-228">
          <mxGeometry x="36" width="136" height="47" as="geometry">
            <mxRectangle width="136" height="47" as="alternateBounds" />
          </mxGeometry>
        </mxCell>
        <mxCell id="b1VcHCO6YZUFTfwH8kM3-231" value="PK" style="shape=partialRectangle;connectable=0;fillColor=none;top=0;left=0;bottom=0;right=0;align=left;spacingLeft=2;overflow=hidden;fontSize=11;" vertex="1" parent="b1VcHCO6YZUFTfwH8kM3-228">
          <mxGeometry x="172" width="22" height="47" as="geometry">
            <mxRectangle width="22" height="47" as="alternateBounds" />
          </mxGeometry>
        </mxCell>
        <mxCell id="b1VcHCO6YZUFTfwH8kM3-232" style="shape=tableRow;horizontal=0;startSize=0;swimlaneHead=0;swimlaneBody=0;fillColor=none;collapsible=0;dropTarget=0;points=[[0,0.5],[1,0.5]];portConstraint=eastwest;top=0;left=0;right=0;bottom=0;" vertex="1" parent="b1VcHCO6YZUFTfwH8kM3-227">
          <mxGeometry y="72" width="194" height="47" as="geometry" />
        </mxCell>
        <mxCell id="b1VcHCO6YZUFTfwH8kM3-233" value="string" style="shape=partialRectangle;connectable=0;fillColor=none;top=0;left=0;bottom=0;right=0;align=left;spacingLeft=2;overflow=hidden;fontSize=11;" vertex="1" parent="b1VcHCO6YZUFTfwH8kM3-232">
          <mxGeometry width="36" height="47" as="geometry">
            <mxRectangle width="36" height="47" as="alternateBounds" />
          </mxGeometry>
        </mxCell>
        <mxCell id="b1VcHCO6YZUFTfwH8kM3-234" value="nome" style="shape=partialRectangle;connectable=0;fillColor=none;top=0;left=0;bottom=0;right=0;align=left;spacingLeft=2;overflow=hidden;fontSize=11;" vertex="1" parent="b1VcHCO6YZUFTfwH8kM3-232">
          <mxGeometry x="36" width="136" height="47" as="geometry">
            <mxRectangle width="136" height="47" as="alternateBounds" />
          </mxGeometry>
        </mxCell>
        <mxCell id="b1VcHCO6YZUFTfwH8kM3-235" value="" style="shape=partialRectangle;connectable=0;fillColor=none;top=0;left=0;bottom=0;right=0;align=left;spacingLeft=2;overflow=hidden;fontSize=11;" vertex="1" parent="b1VcHCO6YZUFTfwH8kM3-232">
          <mxGeometry x="172" width="22" height="47" as="geometry">
            <mxRectangle width="22" height="47" as="alternateBounds" />
          </mxGeometry>
        </mxCell>
        <mxCell id="b1VcHCO6YZUFTfwH8kM3-236" style="shape=tableRow;horizontal=0;startSize=0;swimlaneHead=0;swimlaneBody=0;fillColor=none;collapsible=0;dropTarget=0;points=[[0,0.5],[1,0.5]];portConstraint=eastwest;top=0;left=0;right=0;bottom=0;" vertex="1" parent="b1VcHCO6YZUFTfwH8kM3-227">
          <mxGeometry y="119" width="194" height="47" as="geometry" />
        </mxCell>
        <mxCell id="b1VcHCO6YZUFTfwH8kM3-237" value="string" style="shape=partialRectangle;connectable=0;fillColor=none;top=0;left=0;bottom=0;right=0;align=left;spacingLeft=2;overflow=hidden;fontSize=11;" vertex="1" parent="b1VcHCO6YZUFTfwH8kM3-236">
          <mxGeometry width="36" height="47" as="geometry">
            <mxRectangle width="36" height="47" as="alternateBounds" />
          </mxGeometry>
        </mxCell>
        <mxCell id="b1VcHCO6YZUFTfwH8kM3-238" value="email" style="shape=partialRectangle;connectable=0;fillColor=none;top=0;left=0;bottom=0;right=0;align=left;spacingLeft=2;overflow=hidden;fontSize=11;" vertex="1" parent="b1VcHCO6YZUFTfwH8kM3-236">
          <mxGeometry x="36" width="136" height="47" as="geometry">
            <mxRectangle width="136" height="47" as="alternateBounds" />
          </mxGeometry>
        </mxCell>
        <mxCell id="b1VcHCO6YZUFTfwH8kM3-239" value="" style="shape=partialRectangle;connectable=0;fillColor=none;top=0;left=0;bottom=0;right=0;align=left;spacingLeft=2;overflow=hidden;fontSize=11;" vertex="1" parent="b1VcHCO6YZUFTfwH8kM3-236">
          <mxGeometry x="172" width="22" height="47" as="geometry">
            <mxRectangle width="22" height="47" as="alternateBounds" />
          </mxGeometry>
        </mxCell>
        <mxCell id="b1VcHCO6YZUFTfwH8kM3-240" style="shape=tableRow;horizontal=0;startSize=0;swimlaneHead=0;swimlaneBody=0;fillColor=none;collapsible=0;dropTarget=0;points=[[0,0.5],[1,0.5]];portConstraint=eastwest;top=0;left=0;right=0;bottom=0;" vertex="1" parent="b1VcHCO6YZUFTfwH8kM3-227">
          <mxGeometry y="166" width="194" height="47" as="geometry" />
        </mxCell>
        <mxCell id="b1VcHCO6YZUFTfwH8kM3-241" value="string" style="shape=partialRectangle;connectable=0;fillColor=none;top=0;left=0;bottom=0;right=0;align=left;spacingLeft=2;overflow=hidden;fontSize=11;" vertex="1" parent="b1VcHCO6YZUFTfwH8kM3-240">
          <mxGeometry width="36" height="47" as="geometry">
            <mxRectangle width="36" height="47" as="alternateBounds" />
          </mxGeometry>
        </mxCell>
        <mxCell id="b1VcHCO6YZUFTfwH8kM3-242" value="telefone" style="shape=partialRectangle;connectable=0;fillColor=none;top=0;left=0;bottom=0;right=0;align=left;spacingLeft=2;overflow=hidden;fontSize=11;" vertex="1" parent="b1VcHCO6YZUFTfwH8kM3-240">
          <mxGeometry x="36" width="136" height="47" as="geometry">
            <mxRectangle width="136" height="47" as="alternateBounds" />
          </mxGeometry>
        </mxCell>
        <mxCell id="b1VcHCO6YZUFTfwH8kM3-243" value="" style="shape=partialRectangle;connectable=0;fillColor=none;top=0;left=0;bottom=0;right=0;align=left;spacingLeft=2;overflow=hidden;fontSize=11;" vertex="1" parent="b1VcHCO6YZUFTfwH8kM3-240">
          <mxGeometry x="172" width="22" height="47" as="geometry">
            <mxRectangle width="22" height="47" as="alternateBounds" />
          </mxGeometry>
        </mxCell>
        <mxCell id="b1VcHCO6YZUFTfwH8kM3-244" value="CLIENT" style="shape=table;startSize=25;container=1;collapsible=0;childLayout=tableLayout;fixedRows=1;rowLines=1;fontStyle=1;align=center;resizeLast=1;" vertex="1" parent="1">
          <mxGeometry x="187" y="336" width="200" height="172" as="geometry" />
        </mxCell>
        <mxCell id="b1VcHCO6YZUFTfwH8kM3-245" style="shape=tableRow;horizontal=0;startSize=0;swimlaneHead=0;swimlaneBody=0;fillColor=none;collapsible=0;dropTarget=0;points=[[0,0.5],[1,0.5]];portConstraint=eastwest;top=0;left=0;right=0;bottom=0;" vertex="1" parent="b1VcHCO6YZUFTfwH8kM3-244">
          <mxGeometry y="25" width="200" height="49" as="geometry" />
        </mxCell>
        <mxCell id="b1VcHCO6YZUFTfwH8kM3-246" value="int" style="shape=partialRectangle;connectable=0;fillColor=none;top=0;left=0;bottom=0;right=0;align=left;spacingLeft=2;overflow=hidden;fontSize=11;" vertex="1" parent="b1VcHCO6YZUFTfwH8kM3-245">
          <mxGeometry width="36" height="49" as="geometry">
            <mxRectangle width="36" height="49" as="alternateBounds" />
          </mxGeometry>
        </mxCell>
        <mxCell id="b1VcHCO6YZUFTfwH8kM3-247" value="id" style="shape=partialRectangle;connectable=0;fillColor=none;top=0;left=0;bottom=0;right=0;align=left;spacingLeft=2;overflow=hidden;fontSize=11;" vertex="1" parent="b1VcHCO6YZUFTfwH8kM3-245">
          <mxGeometry x="36" width="142" height="49" as="geometry">
            <mxRectangle width="142" height="49" as="alternateBounds" />
          </mxGeometry>
        </mxCell>
        <mxCell id="b1VcHCO6YZUFTfwH8kM3-248" value="PK" style="shape=partialRectangle;connectable=0;fillColor=none;top=0;left=0;bottom=0;right=0;align=left;spacingLeft=2;overflow=hidden;fontSize=11;" vertex="1" parent="b1VcHCO6YZUFTfwH8kM3-245">
          <mxGeometry x="178" width="22" height="49" as="geometry">
            <mxRectangle width="22" height="49" as="alternateBounds" />
          </mxGeometry>
        </mxCell>
        <mxCell id="b1VcHCO6YZUFTfwH8kM3-249" style="shape=tableRow;horizontal=0;startSize=0;swimlaneHead=0;swimlaneBody=0;fillColor=none;collapsible=0;dropTarget=0;points=[[0,0.5],[1,0.5]];portConstraint=eastwest;top=0;left=0;right=0;bottom=0;" vertex="1" parent="b1VcHCO6YZUFTfwH8kM3-244">
          <mxGeometry y="74" width="200" height="49" as="geometry" />
        </mxCell>
        <mxCell id="b1VcHCO6YZUFTfwH8kM3-250" value="string" style="shape=partialRectangle;connectable=0;fillColor=none;top=0;left=0;bottom=0;right=0;align=left;spacingLeft=2;overflow=hidden;fontSize=11;" vertex="1" parent="b1VcHCO6YZUFTfwH8kM3-249">
          <mxGeometry width="36" height="49" as="geometry">
            <mxRectangle width="36" height="49" as="alternateBounds" />
          </mxGeometry>
        </mxCell>
        <mxCell id="b1VcHCO6YZUFTfwH8kM3-251" value="cpf" style="shape=partialRectangle;connectable=0;fillColor=none;top=0;left=0;bottom=0;right=0;align=left;spacingLeft=2;overflow=hidden;fontSize=11;" vertex="1" parent="b1VcHCO6YZUFTfwH8kM3-249">
          <mxGeometry x="36" width="142" height="49" as="geometry">
            <mxRectangle width="142" height="49" as="alternateBounds" />
          </mxGeometry>
        </mxCell>
        <mxCell id="b1VcHCO6YZUFTfwH8kM3-252" value="" style="shape=partialRectangle;connectable=0;fillColor=none;top=0;left=0;bottom=0;right=0;align=left;spacingLeft=2;overflow=hidden;fontSize=11;" vertex="1" parent="b1VcHCO6YZUFTfwH8kM3-249">
          <mxGeometry x="178" width="22" height="49" as="geometry">
            <mxRectangle width="22" height="49" as="alternateBounds" />
          </mxGeometry>
        </mxCell>
        <mxCell id="b1VcHCO6YZUFTfwH8kM3-253" style="shape=tableRow;horizontal=0;startSize=0;swimlaneHead=0;swimlaneBody=0;fillColor=none;collapsible=0;dropTarget=0;points=[[0,0.5],[1,0.5]];portConstraint=eastwest;top=0;left=0;right=0;bottom=0;" vertex="1" parent="b1VcHCO6YZUFTfwH8kM3-244">
          <mxGeometry y="123" width="200" height="49" as="geometry" />
        </mxCell>
        <mxCell id="b1VcHCO6YZUFTfwH8kM3-254" value="string" style="shape=partialRectangle;connectable=0;fillColor=none;top=0;left=0;bottom=0;right=0;align=left;spacingLeft=2;overflow=hidden;fontSize=11;" vertex="1" parent="b1VcHCO6YZUFTfwH8kM3-253">
          <mxGeometry width="36" height="49" as="geometry">
            <mxRectangle width="36" height="49" as="alternateBounds" />
          </mxGeometry>
        </mxCell>
        <mxCell id="b1VcHCO6YZUFTfwH8kM3-255" value="endereco" style="shape=partialRectangle;connectable=0;fillColor=none;top=0;left=0;bottom=0;right=0;align=left;spacingLeft=2;overflow=hidden;fontSize=11;" vertex="1" parent="b1VcHCO6YZUFTfwH8kM3-253">
          <mxGeometry x="36" width="142" height="49" as="geometry">
            <mxRectangle width="142" height="49" as="alternateBounds" />
          </mxGeometry>
        </mxCell>
        <mxCell id="b1VcHCO6YZUFTfwH8kM3-256" value="" style="shape=partialRectangle;connectable=0;fillColor=none;top=0;left=0;bottom=0;right=0;align=left;spacingLeft=2;overflow=hidden;fontSize=11;" vertex="1" parent="b1VcHCO6YZUFTfwH8kM3-253">
          <mxGeometry x="178" width="22" height="49" as="geometry">
            <mxRectangle width="22" height="49" as="alternateBounds" />
          </mxGeometry>
        </mxCell>
        <mxCell id="b1VcHCO6YZUFTfwH8kM3-257" value="ADMIN" style="shape=table;startSize=25;container=1;collapsible=0;childLayout=tableLayout;fixedRows=1;rowLines=1;fontStyle=1;align=center;resizeLast=1;" vertex="1" parent="1">
          <mxGeometry x="527" y="336" width="227" height="172" as="geometry" />
        </mxCell>
        <mxCell id="b1VcHCO6YZUFTfwH8kM3-258" style="shape=tableRow;horizontal=0;startSize=0;swimlaneHead=0;swimlaneBody=0;fillColor=none;collapsible=0;dropTarget=0;points=[[0,0.5],[1,0.5]];portConstraint=eastwest;top=0;left=0;right=0;bottom=0;" vertex="1" parent="b1VcHCO6YZUFTfwH8kM3-257">
          <mxGeometry y="25" width="227" height="49" as="geometry" />
        </mxCell>
        <mxCell id="b1VcHCO6YZUFTfwH8kM3-259" value="int" style="shape=partialRectangle;connectable=0;fillColor=none;top=0;left=0;bottom=0;right=0;align=left;spacingLeft=2;overflow=hidden;fontSize=11;" vertex="1" parent="b1VcHCO6YZUFTfwH8kM3-258">
          <mxGeometry width="36" height="49" as="geometry">
            <mxRectangle width="36" height="49" as="alternateBounds" />
          </mxGeometry>
        </mxCell>
        <mxCell id="b1VcHCO6YZUFTfwH8kM3-260" value="id" style="shape=partialRectangle;connectable=0;fillColor=none;top=0;left=0;bottom=0;right=0;align=left;spacingLeft=2;overflow=hidden;fontSize=11;" vertex="1" parent="b1VcHCO6YZUFTfwH8kM3-258">
          <mxGeometry x="36" width="169" height="49" as="geometry">
            <mxRectangle width="169" height="49" as="alternateBounds" />
          </mxGeometry>
        </mxCell>
        <mxCell id="b1VcHCO6YZUFTfwH8kM3-261" value="PK" style="shape=partialRectangle;connectable=0;fillColor=none;top=0;left=0;bottom=0;right=0;align=left;spacingLeft=2;overflow=hidden;fontSize=11;" vertex="1" parent="b1VcHCO6YZUFTfwH8kM3-258">
          <mxGeometry x="205" width="22" height="49" as="geometry">
            <mxRectangle width="22" height="49" as="alternateBounds" />
          </mxGeometry>
        </mxCell>
        <mxCell id="b1VcHCO6YZUFTfwH8kM3-262" style="shape=tableRow;horizontal=0;startSize=0;swimlaneHead=0;swimlaneBody=0;fillColor=none;collapsible=0;dropTarget=0;points=[[0,0.5],[1,0.5]];portConstraint=eastwest;top=0;left=0;right=0;bottom=0;" vertex="1" parent="b1VcHCO6YZUFTfwH8kM3-257">
          <mxGeometry y="74" width="227" height="49" as="geometry" />
        </mxCell>
        <mxCell id="b1VcHCO6YZUFTfwH8kM3-263" value="string" style="shape=partialRectangle;connectable=0;fillColor=none;top=0;left=0;bottom=0;right=0;align=left;spacingLeft=2;overflow=hidden;fontSize=11;" vertex="1" parent="b1VcHCO6YZUFTfwH8kM3-262">
          <mxGeometry width="36" height="49" as="geometry">
            <mxRectangle width="36" height="49" as="alternateBounds" />
          </mxGeometry>
        </mxCell>
        <mxCell id="b1VcHCO6YZUFTfwH8kM3-264" value="pis_pasep" style="shape=partialRectangle;connectable=0;fillColor=none;top=0;left=0;bottom=0;right=0;align=left;spacingLeft=2;overflow=hidden;fontSize=11;" vertex="1" parent="b1VcHCO6YZUFTfwH8kM3-262">
          <mxGeometry x="36" width="169" height="49" as="geometry">
            <mxRectangle width="169" height="49" as="alternateBounds" />
          </mxGeometry>
        </mxCell>
        <mxCell id="b1VcHCO6YZUFTfwH8kM3-265" value="" style="shape=partialRectangle;connectable=0;fillColor=none;top=0;left=0;bottom=0;right=0;align=left;spacingLeft=2;overflow=hidden;fontSize=11;" vertex="1" parent="b1VcHCO6YZUFTfwH8kM3-262">
          <mxGeometry x="205" width="22" height="49" as="geometry">
            <mxRectangle width="22" height="49" as="alternateBounds" />
          </mxGeometry>
        </mxCell>
        <mxCell id="b1VcHCO6YZUFTfwH8kM3-266" style="shape=tableRow;horizontal=0;startSize=0;swimlaneHead=0;swimlaneBody=0;fillColor=none;collapsible=0;dropTarget=0;points=[[0,0.5],[1,0.5]];portConstraint=eastwest;top=0;left=0;right=0;bottom=0;" vertex="1" parent="b1VcHCO6YZUFTfwH8kM3-257">
          <mxGeometry y="123" width="227" height="49" as="geometry" />
        </mxCell>
        <mxCell id="b1VcHCO6YZUFTfwH8kM3-267" value="date" style="shape=partialRectangle;connectable=0;fillColor=none;top=0;left=0;bottom=0;right=0;align=left;spacingLeft=2;overflow=hidden;fontSize=11;" vertex="1" parent="b1VcHCO6YZUFTfwH8kM3-266">
          <mxGeometry width="36" height="49" as="geometry">
            <mxRectangle width="36" height="49" as="alternateBounds" />
          </mxGeometry>
        </mxCell>
        <mxCell id="b1VcHCO6YZUFTfwH8kM3-268" value="admission_at" style="shape=partialRectangle;connectable=0;fillColor=none;top=0;left=0;bottom=0;right=0;align=left;spacingLeft=2;overflow=hidden;fontSize=11;" vertex="1" parent="b1VcHCO6YZUFTfwH8kM3-266">
          <mxGeometry x="36" width="169" height="49" as="geometry">
            <mxRectangle width="169" height="49" as="alternateBounds" />
          </mxGeometry>
        </mxCell>
        <mxCell id="b1VcHCO6YZUFTfwH8kM3-269" value="" style="shape=partialRectangle;connectable=0;fillColor=none;top=0;left=0;bottom=0;right=0;align=left;spacingLeft=2;overflow=hidden;fontSize=11;" vertex="1" parent="b1VcHCO6YZUFTfwH8kM3-266">
          <mxGeometry x="205" width="22" height="49" as="geometry">
            <mxRectangle width="22" height="49" as="alternateBounds" />
          </mxGeometry>
        </mxCell>
        <mxCell id="b1VcHCO6YZUFTfwH8kM3-270" value="PEDIDO" style="shape=table;startSize=25;container=1;collapsible=0;childLayout=tableLayout;fixedRows=1;rowLines=1;fontStyle=1;align=center;resizeLast=1;" vertex="1" parent="1">
          <mxGeometry x="171" y="610" width="231" height="172" as="geometry" />
        </mxCell>
        <mxCell id="b1VcHCO6YZUFTfwH8kM3-271" style="shape=tableRow;horizontal=0;startSize=0;swimlaneHead=0;swimlaneBody=0;fillColor=none;collapsible=0;dropTarget=0;points=[[0,0.5],[1,0.5]];portConstraint=eastwest;top=0;left=0;right=0;bottom=0;" vertex="1" parent="b1VcHCO6YZUFTfwH8kM3-270">
          <mxGeometry y="25" width="231" height="49" as="geometry" />
        </mxCell>
        <mxCell id="b1VcHCO6YZUFTfwH8kM3-272" value="int" style="shape=partialRectangle;connectable=0;fillColor=none;top=0;left=0;bottom=0;right=0;align=left;spacingLeft=2;overflow=hidden;fontSize=11;" vertex="1" parent="b1VcHCO6YZUFTfwH8kM3-271">
          <mxGeometry width="48" height="49" as="geometry">
            <mxRectangle width="48" height="49" as="alternateBounds" />
          </mxGeometry>
        </mxCell>
        <mxCell id="b1VcHCO6YZUFTfwH8kM3-273" value="id" style="shape=partialRectangle;connectable=0;fillColor=none;top=0;left=0;bottom=0;right=0;align=left;spacingLeft=2;overflow=hidden;fontSize=11;" vertex="1" parent="b1VcHCO6YZUFTfwH8kM3-271">
          <mxGeometry x="48" width="161" height="49" as="geometry">
            <mxRectangle width="161" height="49" as="alternateBounds" />
          </mxGeometry>
        </mxCell>
        <mxCell id="b1VcHCO6YZUFTfwH8kM3-274" value="PK" style="shape=partialRectangle;connectable=0;fillColor=none;top=0;left=0;bottom=0;right=0;align=left;spacingLeft=2;overflow=hidden;fontSize=11;" vertex="1" parent="b1VcHCO6YZUFTfwH8kM3-271">
          <mxGeometry x="209" width="22" height="49" as="geometry">
            <mxRectangle width="22" height="49" as="alternateBounds" />
          </mxGeometry>
        </mxCell>
        <mxCell id="b1VcHCO6YZUFTfwH8kM3-275" style="shape=tableRow;horizontal=0;startSize=0;swimlaneHead=0;swimlaneBody=0;fillColor=none;collapsible=0;dropTarget=0;points=[[0,0.5],[1,0.5]];portConstraint=eastwest;top=0;left=0;right=0;bottom=0;" vertex="1" parent="b1VcHCO6YZUFTfwH8kM3-270">
          <mxGeometry y="74" width="231" height="49" as="geometry" />
        </mxCell>
        <mxCell id="b1VcHCO6YZUFTfwH8kM3-276" value="datetime" style="shape=partialRectangle;connectable=0;fillColor=none;top=0;left=0;bottom=0;right=0;align=left;spacingLeft=2;overflow=hidden;fontSize=11;" vertex="1" parent="b1VcHCO6YZUFTfwH8kM3-275">
          <mxGeometry width="48" height="49" as="geometry">
            <mxRectangle width="48" height="49" as="alternateBounds" />
          </mxGeometry>
        </mxCell>
        <mxCell id="b1VcHCO6YZUFTfwH8kM3-277" value="data_hora" style="shape=partialRectangle;connectable=0;fillColor=none;top=0;left=0;bottom=0;right=0;align=left;spacingLeft=2;overflow=hidden;fontSize=11;" vertex="1" parent="b1VcHCO6YZUFTfwH8kM3-275">
          <mxGeometry x="48" width="161" height="49" as="geometry">
            <mxRectangle width="161" height="49" as="alternateBounds" />
          </mxGeometry>
        </mxCell>
        <mxCell id="b1VcHCO6YZUFTfwH8kM3-278" value="" style="shape=partialRectangle;connectable=0;fillColor=none;top=0;left=0;bottom=0;right=0;align=left;spacingLeft=2;overflow=hidden;fontSize=11;" vertex="1" parent="b1VcHCO6YZUFTfwH8kM3-275">
          <mxGeometry x="209" width="22" height="49" as="geometry">
            <mxRectangle width="22" height="49" as="alternateBounds" />
          </mxGeometry>
        </mxCell>
        <mxCell id="b1VcHCO6YZUFTfwH8kM3-279" style="shape=tableRow;horizontal=0;startSize=0;swimlaneHead=0;swimlaneBody=0;fillColor=none;collapsible=0;dropTarget=0;points=[[0,0.5],[1,0.5]];portConstraint=eastwest;top=0;left=0;right=0;bottom=0;" vertex="1" parent="b1VcHCO6YZUFTfwH8kM3-270">
          <mxGeometry y="123" width="231" height="49" as="geometry" />
        </mxCell>
        <mxCell id="b1VcHCO6YZUFTfwH8kM3-280" value="string" style="shape=partialRectangle;connectable=0;fillColor=none;top=0;left=0;bottom=0;right=0;align=left;spacingLeft=2;overflow=hidden;fontSize=11;" vertex="1" parent="b1VcHCO6YZUFTfwH8kM3-279">
          <mxGeometry width="48" height="49" as="geometry">
            <mxRectangle width="48" height="49" as="alternateBounds" />
          </mxGeometry>
        </mxCell>
        <mxCell id="b1VcHCO6YZUFTfwH8kM3-281" value="status" style="shape=partialRectangle;connectable=0;fillColor=none;top=0;left=0;bottom=0;right=0;align=left;spacingLeft=2;overflow=hidden;fontSize=11;" vertex="1" parent="b1VcHCO6YZUFTfwH8kM3-279">
          <mxGeometry x="48" width="161" height="49" as="geometry">
            <mxRectangle width="161" height="49" as="alternateBounds" />
          </mxGeometry>
        </mxCell>
        <mxCell id="b1VcHCO6YZUFTfwH8kM3-282" value="" style="shape=partialRectangle;connectable=0;fillColor=none;top=0;left=0;bottom=0;right=0;align=left;spacingLeft=2;overflow=hidden;fontSize=11;" vertex="1" parent="b1VcHCO6YZUFTfwH8kM3-279">
          <mxGeometry x="209" width="22" height="49" as="geometry">
            <mxRectangle width="22" height="49" as="alternateBounds" />
          </mxGeometry>
        </mxCell>
        <mxCell id="b1VcHCO6YZUFTfwH8kM3-283" value="METODO_PAGAMENTO" style="shape=table;startSize=25;container=1;collapsible=0;childLayout=tableLayout;fixedRows=1;rowLines=1;fontStyle=1;align=center;resizeLast=1;" vertex="1" parent="1">
          <mxGeometry x="20" y="884" width="204" height="172" as="geometry" />
        </mxCell>
        <mxCell id="b1VcHCO6YZUFTfwH8kM3-284" style="shape=tableRow;horizontal=0;startSize=0;swimlaneHead=0;swimlaneBody=0;fillColor=none;collapsible=0;dropTarget=0;points=[[0,0.5],[1,0.5]];portConstraint=eastwest;top=0;left=0;right=0;bottom=0;" vertex="1" parent="b1VcHCO6YZUFTfwH8kM3-283">
          <mxGeometry y="25" width="204" height="49" as="geometry" />
        </mxCell>
        <mxCell id="b1VcHCO6YZUFTfwH8kM3-285" value="int" style="shape=partialRectangle;connectable=0;fillColor=none;top=0;left=0;bottom=0;right=0;align=left;spacingLeft=2;overflow=hidden;fontSize=11;" vertex="1" parent="b1VcHCO6YZUFTfwH8kM3-284">
          <mxGeometry width="36" height="49" as="geometry">
            <mxRectangle width="36" height="49" as="alternateBounds" />
          </mxGeometry>
        </mxCell>
        <mxCell id="b1VcHCO6YZUFTfwH8kM3-286" value="id" style="shape=partialRectangle;connectable=0;fillColor=none;top=0;left=0;bottom=0;right=0;align=left;spacingLeft=2;overflow=hidden;fontSize=11;" vertex="1" parent="b1VcHCO6YZUFTfwH8kM3-284">
          <mxGeometry x="36" width="146" height="49" as="geometry">
            <mxRectangle width="146" height="49" as="alternateBounds" />
          </mxGeometry>
        </mxCell>
        <mxCell id="b1VcHCO6YZUFTfwH8kM3-287" value="PK" style="shape=partialRectangle;connectable=0;fillColor=none;top=0;left=0;bottom=0;right=0;align=left;spacingLeft=2;overflow=hidden;fontSize=11;" vertex="1" parent="b1VcHCO6YZUFTfwH8kM3-284">
          <mxGeometry x="182" width="22" height="49" as="geometry">
            <mxRectangle width="22" height="49" as="alternateBounds" />
          </mxGeometry>
        </mxCell>
        <mxCell id="b1VcHCO6YZUFTfwH8kM3-288" style="shape=tableRow;horizontal=0;startSize=0;swimlaneHead=0;swimlaneBody=0;fillColor=none;collapsible=0;dropTarget=0;points=[[0,0.5],[1,0.5]];portConstraint=eastwest;top=0;left=0;right=0;bottom=0;" vertex="1" parent="b1VcHCO6YZUFTfwH8kM3-283">
          <mxGeometry y="74" width="204" height="49" as="geometry" />
        </mxCell>
        <mxCell id="b1VcHCO6YZUFTfwH8kM3-289" value="string" style="shape=partialRectangle;connectable=0;fillColor=none;top=0;left=0;bottom=0;right=0;align=left;spacingLeft=2;overflow=hidden;fontSize=11;" vertex="1" parent="b1VcHCO6YZUFTfwH8kM3-288">
          <mxGeometry width="36" height="49" as="geometry">
            <mxRectangle width="36" height="49" as="alternateBounds" />
          </mxGeometry>
        </mxCell>
        <mxCell id="b1VcHCO6YZUFTfwH8kM3-290" value="tipo" style="shape=partialRectangle;connectable=0;fillColor=none;top=0;left=0;bottom=0;right=0;align=left;spacingLeft=2;overflow=hidden;fontSize=11;" vertex="1" parent="b1VcHCO6YZUFTfwH8kM3-288">
          <mxGeometry x="36" width="146" height="49" as="geometry">
            <mxRectangle width="146" height="49" as="alternateBounds" />
          </mxGeometry>
        </mxCell>
        <mxCell id="b1VcHCO6YZUFTfwH8kM3-291" value="" style="shape=partialRectangle;connectable=0;fillColor=none;top=0;left=0;bottom=0;right=0;align=left;spacingLeft=2;overflow=hidden;fontSize=11;" vertex="1" parent="b1VcHCO6YZUFTfwH8kM3-288">
          <mxGeometry x="182" width="22" height="49" as="geometry">
            <mxRectangle width="22" height="49" as="alternateBounds" />
          </mxGeometry>
        </mxCell>
        <mxCell id="b1VcHCO6YZUFTfwH8kM3-292" style="shape=tableRow;horizontal=0;startSize=0;swimlaneHead=0;swimlaneBody=0;fillColor=none;collapsible=0;dropTarget=0;points=[[0,0.5],[1,0.5]];portConstraint=eastwest;top=0;left=0;right=0;bottom=0;" vertex="1" parent="b1VcHCO6YZUFTfwH8kM3-283">
          <mxGeometry y="123" width="204" height="49" as="geometry" />
        </mxCell>
        <mxCell id="b1VcHCO6YZUFTfwH8kM3-293" value="string" style="shape=partialRectangle;connectable=0;fillColor=none;top=0;left=0;bottom=0;right=0;align=left;spacingLeft=2;overflow=hidden;fontSize=11;" vertex="1" parent="b1VcHCO6YZUFTfwH8kM3-292">
          <mxGeometry width="36" height="49" as="geometry">
            <mxRectangle width="36" height="49" as="alternateBounds" />
          </mxGeometry>
        </mxCell>
        <mxCell id="b1VcHCO6YZUFTfwH8kM3-294" value="detalhes" style="shape=partialRectangle;connectable=0;fillColor=none;top=0;left=0;bottom=0;right=0;align=left;spacingLeft=2;overflow=hidden;fontSize=11;" vertex="1" parent="b1VcHCO6YZUFTfwH8kM3-292">
          <mxGeometry x="36" width="146" height="49" as="geometry">
            <mxRectangle width="146" height="49" as="alternateBounds" />
          </mxGeometry>
        </mxCell>
        <mxCell id="b1VcHCO6YZUFTfwH8kM3-295" value="" style="shape=partialRectangle;connectable=0;fillColor=none;top=0;left=0;bottom=0;right=0;align=left;spacingLeft=2;overflow=hidden;fontSize=11;" vertex="1" parent="b1VcHCO6YZUFTfwH8kM3-292">
          <mxGeometry x="182" width="22" height="49" as="geometry">
            <mxRectangle width="22" height="49" as="alternateBounds" />
          </mxGeometry>
        </mxCell>
        <mxCell id="b1VcHCO6YZUFTfwH8kM3-296" value="PRODUTO" style="shape=table;startSize=25;container=1;collapsible=0;childLayout=tableLayout;fixedRows=1;rowLines=1;fontStyle=1;align=center;resizeLast=1;" vertex="1" parent="1">
          <mxGeometry x="364" y="884" width="174" height="172" as="geometry" />
        </mxCell>
        <mxCell id="b1VcHCO6YZUFTfwH8kM3-297" style="shape=tableRow;horizontal=0;startSize=0;swimlaneHead=0;swimlaneBody=0;fillColor=none;collapsible=0;dropTarget=0;points=[[0,0.5],[1,0.5]];portConstraint=eastwest;top=0;left=0;right=0;bottom=0;" vertex="1" parent="b1VcHCO6YZUFTfwH8kM3-296">
          <mxGeometry y="25" width="174" height="49" as="geometry" />
        </mxCell>
        <mxCell id="b1VcHCO6YZUFTfwH8kM3-298" value="int" style="shape=partialRectangle;connectable=0;fillColor=none;top=0;left=0;bottom=0;right=0;align=left;spacingLeft=2;overflow=hidden;fontSize=11;" vertex="1" parent="b1VcHCO6YZUFTfwH8kM3-297">
          <mxGeometry width="36" height="49" as="geometry">
            <mxRectangle width="36" height="49" as="alternateBounds" />
          </mxGeometry>
        </mxCell>
        <mxCell id="b1VcHCO6YZUFTfwH8kM3-299" value="id" style="shape=partialRectangle;connectable=0;fillColor=none;top=0;left=0;bottom=0;right=0;align=left;spacingLeft=2;overflow=hidden;fontSize=11;" vertex="1" parent="b1VcHCO6YZUFTfwH8kM3-297">
          <mxGeometry x="36" width="116" height="49" as="geometry">
            <mxRectangle width="116" height="49" as="alternateBounds" />
          </mxGeometry>
        </mxCell>
        <mxCell id="b1VcHCO6YZUFTfwH8kM3-300" value="PK" style="shape=partialRectangle;connectable=0;fillColor=none;top=0;left=0;bottom=0;right=0;align=left;spacingLeft=2;overflow=hidden;fontSize=11;" vertex="1" parent="b1VcHCO6YZUFTfwH8kM3-297">
          <mxGeometry x="152" width="22" height="49" as="geometry">
            <mxRectangle width="22" height="49" as="alternateBounds" />
          </mxGeometry>
        </mxCell>
        <mxCell id="b1VcHCO6YZUFTfwH8kM3-301" style="shape=tableRow;horizontal=0;startSize=0;swimlaneHead=0;swimlaneBody=0;fillColor=none;collapsible=0;dropTarget=0;points=[[0,0.5],[1,0.5]];portConstraint=eastwest;top=0;left=0;right=0;bottom=0;" vertex="1" parent="b1VcHCO6YZUFTfwH8kM3-296">
          <mxGeometry y="74" width="174" height="49" as="geometry" />
        </mxCell>
        <mxCell id="b1VcHCO6YZUFTfwH8kM3-302" value="string" style="shape=partialRectangle;connectable=0;fillColor=none;top=0;left=0;bottom=0;right=0;align=left;spacingLeft=2;overflow=hidden;fontSize=11;" vertex="1" parent="b1VcHCO6YZUFTfwH8kM3-301">
          <mxGeometry width="36" height="49" as="geometry">
            <mxRectangle width="36" height="49" as="alternateBounds" />
          </mxGeometry>
        </mxCell>
        <mxCell id="b1VcHCO6YZUFTfwH8kM3-303" value="nome" style="shape=partialRectangle;connectable=0;fillColor=none;top=0;left=0;bottom=0;right=0;align=left;spacingLeft=2;overflow=hidden;fontSize=11;" vertex="1" parent="b1VcHCO6YZUFTfwH8kM3-301">
          <mxGeometry x="36" width="116" height="49" as="geometry">
            <mxRectangle width="116" height="49" as="alternateBounds" />
          </mxGeometry>
        </mxCell>
        <mxCell id="b1VcHCO6YZUFTfwH8kM3-304" value="" style="shape=partialRectangle;connectable=0;fillColor=none;top=0;left=0;bottom=0;right=0;align=left;spacingLeft=2;overflow=hidden;fontSize=11;" vertex="1" parent="b1VcHCO6YZUFTfwH8kM3-301">
          <mxGeometry x="152" width="22" height="49" as="geometry">
            <mxRectangle width="22" height="49" as="alternateBounds" />
          </mxGeometry>
        </mxCell>
        <mxCell id="b1VcHCO6YZUFTfwH8kM3-305" style="shape=tableRow;horizontal=0;startSize=0;swimlaneHead=0;swimlaneBody=0;fillColor=none;collapsible=0;dropTarget=0;points=[[0,0.5],[1,0.5]];portConstraint=eastwest;top=0;left=0;right=0;bottom=0;" vertex="1" parent="b1VcHCO6YZUFTfwH8kM3-296">
          <mxGeometry y="123" width="174" height="49" as="geometry" />
        </mxCell>
        <mxCell id="b1VcHCO6YZUFTfwH8kM3-306" value="float" style="shape=partialRectangle;connectable=0;fillColor=none;top=0;left=0;bottom=0;right=0;align=left;spacingLeft=2;overflow=hidden;fontSize=11;" vertex="1" parent="b1VcHCO6YZUFTfwH8kM3-305">
          <mxGeometry width="36" height="49" as="geometry">
            <mxRectangle width="36" height="49" as="alternateBounds" />
          </mxGeometry>
        </mxCell>
        <mxCell id="b1VcHCO6YZUFTfwH8kM3-307" value="preco" style="shape=partialRectangle;connectable=0;fillColor=none;top=0;left=0;bottom=0;right=0;align=left;spacingLeft=2;overflow=hidden;fontSize=11;" vertex="1" parent="b1VcHCO6YZUFTfwH8kM3-305">
          <mxGeometry x="36" width="116" height="49" as="geometry">
            <mxRectangle width="116" height="49" as="alternateBounds" />
          </mxGeometry>
        </mxCell>
        <mxCell id="b1VcHCO6YZUFTfwH8kM3-308" value="" style="shape=partialRectangle;connectable=0;fillColor=none;top=0;left=0;bottom=0;right=0;align=left;spacingLeft=2;overflow=hidden;fontSize=11;" vertex="1" parent="b1VcHCO6YZUFTfwH8kM3-305">
          <mxGeometry x="152" width="22" height="49" as="geometry">
            <mxRectangle width="22" height="49" as="alternateBounds" />
          </mxGeometry>
        </mxCell>
        <mxCell id="b1VcHCO6YZUFTfwH8kM3-309" value="PIZZA" style="shape=table;startSize=25;container=1;collapsible=0;childLayout=tableLayout;fixedRows=1;rowLines=1;fontStyle=1;align=center;resizeLast=1;" vertex="1" parent="1">
          <mxGeometry x="184" y="1157" width="201" height="172" as="geometry" />
        </mxCell>
        <mxCell id="b1VcHCO6YZUFTfwH8kM3-310" style="shape=tableRow;horizontal=0;startSize=0;swimlaneHead=0;swimlaneBody=0;fillColor=none;collapsible=0;dropTarget=0;points=[[0,0.5],[1,0.5]];portConstraint=eastwest;top=0;left=0;right=0;bottom=0;" vertex="1" parent="b1VcHCO6YZUFTfwH8kM3-309">
          <mxGeometry y="25" width="201" height="49" as="geometry" />
        </mxCell>
        <mxCell id="b1VcHCO6YZUFTfwH8kM3-311" value="int" style="shape=partialRectangle;connectable=0;fillColor=none;top=0;left=0;bottom=0;right=0;align=left;spacingLeft=2;overflow=hidden;fontSize=11;" vertex="1" parent="b1VcHCO6YZUFTfwH8kM3-310">
          <mxGeometry width="36" height="49" as="geometry">
            <mxRectangle width="36" height="49" as="alternateBounds" />
          </mxGeometry>
        </mxCell>
        <mxCell id="b1VcHCO6YZUFTfwH8kM3-312" value="id" style="shape=partialRectangle;connectable=0;fillColor=none;top=0;left=0;bottom=0;right=0;align=left;spacingLeft=2;overflow=hidden;fontSize=11;" vertex="1" parent="b1VcHCO6YZUFTfwH8kM3-310">
          <mxGeometry x="36" width="143" height="49" as="geometry">
            <mxRectangle width="143" height="49" as="alternateBounds" />
          </mxGeometry>
        </mxCell>
        <mxCell id="b1VcHCO6YZUFTfwH8kM3-313" value="PK" style="shape=partialRectangle;connectable=0;fillColor=none;top=0;left=0;bottom=0;right=0;align=left;spacingLeft=2;overflow=hidden;fontSize=11;" vertex="1" parent="b1VcHCO6YZUFTfwH8kM3-310">
          <mxGeometry x="179" width="22" height="49" as="geometry">
            <mxRectangle width="22" height="49" as="alternateBounds" />
          </mxGeometry>
        </mxCell>
        <mxCell id="b1VcHCO6YZUFTfwH8kM3-314" style="shape=tableRow;horizontal=0;startSize=0;swimlaneHead=0;swimlaneBody=0;fillColor=none;collapsible=0;dropTarget=0;points=[[0,0.5],[1,0.5]];portConstraint=eastwest;top=0;left=0;right=0;bottom=0;" vertex="1" parent="b1VcHCO6YZUFTfwH8kM3-309">
          <mxGeometry y="74" width="201" height="49" as="geometry" />
        </mxCell>
        <mxCell id="b1VcHCO6YZUFTfwH8kM3-315" value="string" style="shape=partialRectangle;connectable=0;fillColor=none;top=0;left=0;bottom=0;right=0;align=left;spacingLeft=2;overflow=hidden;fontSize=11;" vertex="1" parent="b1VcHCO6YZUFTfwH8kM3-314">
          <mxGeometry width="36" height="49" as="geometry">
            <mxRectangle width="36" height="49" as="alternateBounds" />
          </mxGeometry>
        </mxCell>
        <mxCell id="b1VcHCO6YZUFTfwH8kM3-316" value="tamanho" style="shape=partialRectangle;connectable=0;fillColor=none;top=0;left=0;bottom=0;right=0;align=left;spacingLeft=2;overflow=hidden;fontSize=11;" vertex="1" parent="b1VcHCO6YZUFTfwH8kM3-314">
          <mxGeometry x="36" width="143" height="49" as="geometry">
            <mxRectangle width="143" height="49" as="alternateBounds" />
          </mxGeometry>
        </mxCell>
        <mxCell id="b1VcHCO6YZUFTfwH8kM3-317" value="" style="shape=partialRectangle;connectable=0;fillColor=none;top=0;left=0;bottom=0;right=0;align=left;spacingLeft=2;overflow=hidden;fontSize=11;" vertex="1" parent="b1VcHCO6YZUFTfwH8kM3-314">
          <mxGeometry x="179" width="22" height="49" as="geometry">
            <mxRectangle width="22" height="49" as="alternateBounds" />
          </mxGeometry>
        </mxCell>
        <mxCell id="b1VcHCO6YZUFTfwH8kM3-318" style="shape=tableRow;horizontal=0;startSize=0;swimlaneHead=0;swimlaneBody=0;fillColor=none;collapsible=0;dropTarget=0;points=[[0,0.5],[1,0.5]];portConstraint=eastwest;top=0;left=0;right=0;bottom=0;" vertex="1" parent="b1VcHCO6YZUFTfwH8kM3-309">
          <mxGeometry y="123" width="201" height="49" as="geometry" />
        </mxCell>
        <mxCell id="b1VcHCO6YZUFTfwH8kM3-319" value="string" style="shape=partialRectangle;connectable=0;fillColor=none;top=0;left=0;bottom=0;right=0;align=left;spacingLeft=2;overflow=hidden;fontSize=11;" vertex="1" parent="b1VcHCO6YZUFTfwH8kM3-318">
          <mxGeometry width="36" height="49" as="geometry">
            <mxRectangle width="36" height="49" as="alternateBounds" />
          </mxGeometry>
        </mxCell>
        <mxCell id="b1VcHCO6YZUFTfwH8kM3-320" value="descricao" style="shape=partialRectangle;connectable=0;fillColor=none;top=0;left=0;bottom=0;right=0;align=left;spacingLeft=2;overflow=hidden;fontSize=11;" vertex="1" parent="b1VcHCO6YZUFTfwH8kM3-318">
          <mxGeometry x="36" width="143" height="49" as="geometry">
            <mxRectangle width="143" height="49" as="alternateBounds" />
          </mxGeometry>
        </mxCell>
        <mxCell id="b1VcHCO6YZUFTfwH8kM3-321" value="" style="shape=partialRectangle;connectable=0;fillColor=none;top=0;left=0;bottom=0;right=0;align=left;spacingLeft=2;overflow=hidden;fontSize=11;" vertex="1" parent="b1VcHCO6YZUFTfwH8kM3-318">
          <mxGeometry x="179" width="22" height="49" as="geometry">
            <mxRectangle width="22" height="49" as="alternateBounds" />
          </mxGeometry>
        </mxCell>
        <mxCell id="b1VcHCO6YZUFTfwH8kM3-322" value="BEBIDA" style="shape=table;startSize=25;container=1;collapsible=0;childLayout=tableLayout;fixedRows=1;rowLines=1;fontStyle=1;align=center;resizeLast=1;" vertex="1" parent="1">
          <mxGeometry x="525" y="1179" width="185" height="129" as="geometry" />
        </mxCell>
        <mxCell id="b1VcHCO6YZUFTfwH8kM3-323" style="shape=tableRow;horizontal=0;startSize=0;swimlaneHead=0;swimlaneBody=0;fillColor=none;collapsible=0;dropTarget=0;points=[[0,0.5],[1,0.5]];portConstraint=eastwest;top=0;left=0;right=0;bottom=0;" vertex="1" parent="b1VcHCO6YZUFTfwH8kM3-322">
          <mxGeometry y="25" width="185" height="52" as="geometry" />
        </mxCell>
        <mxCell id="b1VcHCO6YZUFTfwH8kM3-324" value="int" style="shape=partialRectangle;connectable=0;fillColor=none;top=0;left=0;bottom=0;right=0;align=left;spacingLeft=2;overflow=hidden;fontSize=11;" vertex="1" parent="b1VcHCO6YZUFTfwH8kM3-323">
          <mxGeometry width="36" height="52" as="geometry">
            <mxRectangle width="36" height="52" as="alternateBounds" />
          </mxGeometry>
        </mxCell>
        <mxCell id="b1VcHCO6YZUFTfwH8kM3-325" value="id" style="shape=partialRectangle;connectable=0;fillColor=none;top=0;left=0;bottom=0;right=0;align=left;spacingLeft=2;overflow=hidden;fontSize=11;" vertex="1" parent="b1VcHCO6YZUFTfwH8kM3-323">
          <mxGeometry x="36" width="127" height="52" as="geometry">
            <mxRectangle width="127" height="52" as="alternateBounds" />
          </mxGeometry>
        </mxCell>
        <mxCell id="b1VcHCO6YZUFTfwH8kM3-326" value="PK" style="shape=partialRectangle;connectable=0;fillColor=none;top=0;left=0;bottom=0;right=0;align=left;spacingLeft=2;overflow=hidden;fontSize=11;" vertex="1" parent="b1VcHCO6YZUFTfwH8kM3-323">
          <mxGeometry x="163" width="22" height="52" as="geometry">
            <mxRectangle width="22" height="52" as="alternateBounds" />
          </mxGeometry>
        </mxCell>
        <mxCell id="b1VcHCO6YZUFTfwH8kM3-327" style="shape=tableRow;horizontal=0;startSize=0;swimlaneHead=0;swimlaneBody=0;fillColor=none;collapsible=0;dropTarget=0;points=[[0,0.5],[1,0.5]];portConstraint=eastwest;top=0;left=0;right=0;bottom=0;" vertex="1" parent="b1VcHCO6YZUFTfwH8kM3-322">
          <mxGeometry y="77" width="185" height="52" as="geometry" />
        </mxCell>
        <mxCell id="b1VcHCO6YZUFTfwH8kM3-328" value="string" style="shape=partialRectangle;connectable=0;fillColor=none;top=0;left=0;bottom=0;right=0;align=left;spacingLeft=2;overflow=hidden;fontSize=11;" vertex="1" parent="b1VcHCO6YZUFTfwH8kM3-327">
          <mxGeometry width="36" height="52" as="geometry">
            <mxRectangle width="36" height="52" as="alternateBounds" />
          </mxGeometry>
        </mxCell>
        <mxCell id="b1VcHCO6YZUFTfwH8kM3-329" value="volume" style="shape=partialRectangle;connectable=0;fillColor=none;top=0;left=0;bottom=0;right=0;align=left;spacingLeft=2;overflow=hidden;fontSize=11;" vertex="1" parent="b1VcHCO6YZUFTfwH8kM3-327">
          <mxGeometry x="36" width="127" height="52" as="geometry">
            <mxRectangle width="127" height="52" as="alternateBounds" />
          </mxGeometry>
        </mxCell>
        <mxCell id="b1VcHCO6YZUFTfwH8kM3-330" value="" style="shape=partialRectangle;connectable=0;fillColor=none;top=0;left=0;bottom=0;right=0;align=left;spacingLeft=2;overflow=hidden;fontSize=11;" vertex="1" parent="b1VcHCO6YZUFTfwH8kM3-327">
          <mxGeometry x="163" width="22" height="52" as="geometry">
            <mxRectangle width="22" height="52" as="alternateBounds" />
          </mxGeometry>
        </mxCell>
        <mxCell id="b1VcHCO6YZUFTfwH8kM3-331" value="possui" style="curved=1;startArrow=ERmandOne;startSize=10;;endArrow=ERzeroToOne;endSize=10;;exitX=0;exitY=0.91;entryX=0.5;entryY=0;rounded=0;" edge="1" parent="1" source="b1VcHCO6YZUFTfwH8kM3-227" target="b1VcHCO6YZUFTfwH8kM3-244">
          <mxGeometry relative="1" as="geometry">
            <Array as="points">
              <mxPoint x="287" y="285" />
            </Array>
          </mxGeometry>
        </mxCell>
        <mxCell id="b1VcHCO6YZUFTfwH8kM3-332" value="possui" style="curved=1;startArrow=ERmandOne;startSize=10;;endArrow=ERzeroToOne;endSize=10;;exitX=1;exitY=0.91;entryX=0.5;entryY=0;rounded=0;" edge="1" parent="1" source="b1VcHCO6YZUFTfwH8kM3-227" target="b1VcHCO6YZUFTfwH8kM3-257">
          <mxGeometry relative="1" as="geometry">
            <Array as="points">
              <mxPoint x="640" y="285" />
            </Array>
          </mxGeometry>
        </mxCell>
        <mxCell id="b1VcHCO6YZUFTfwH8kM3-333" value="realiza" style="curved=1;startArrow=ERmandOne;startSize=10;;endArrow=ERzeroToMany;endSize=10;;exitX=0.5;exitY=1;entryX=0.5;entryY=0;rounded=0;" edge="1" parent="1" source="b1VcHCO6YZUFTfwH8kM3-244" target="b1VcHCO6YZUFTfwH8kM3-270">
          <mxGeometry relative="1" as="geometry">
            <Array as="points" />
          </mxGeometry>
        </mxCell>
        <mxCell id="b1VcHCO6YZUFTfwH8kM3-334" value="usa" style="curved=1;startArrow=ERzeroToMany;startSize=10;;endArrow=ERmandOne;endSize=10;;exitX=0.06;exitY=1;entryX=0.5;entryY=0;rounded=0;" edge="1" parent="1" source="b1VcHCO6YZUFTfwH8kM3-270" target="b1VcHCO6YZUFTfwH8kM3-283">
          <mxGeometry relative="1" as="geometry">
            <Array as="points">
              <mxPoint x="122" y="832" />
            </Array>
          </mxGeometry>
        </mxCell>
        <mxCell id="b1VcHCO6YZUFTfwH8kM3-335" value="contÃ©m" style="curved=1;startArrow=ERzeroToMany;startSize=10;;endArrow=ERzeroToMany;endSize=10;;exitX=0.95;exitY=1;entryX=0.5;entryY=0;rounded=0;" edge="1" parent="1" source="b1VcHCO6YZUFTfwH8kM3-270" target="b1VcHCO6YZUFTfwH8kM3-296">
          <mxGeometry relative="1" as="geometry">
            <Array as="points">
              <mxPoint x="451" y="832" />
            </Array>
          </mxGeometry>
        </mxCell>
        <mxCell id="b1VcHCO6YZUFTfwH8kM3-336" value="Ã©" style="curved=1;startArrow=ERmandOne;startSize=10;;endArrow=ERoneToMany;endSize=10;;exitX=0;exitY=0.91;entryX=0.5;entryY=0;rounded=0;" edge="1" parent="1" source="b1VcHCO6YZUFTfwH8kM3-296" target="b1VcHCO6YZUFTfwH8kM3-309">
          <mxGeometry relative="1" as="geometry">
            <Array as="points">
              <mxPoint x="285" y="1106" />
            </Array>
          </mxGeometry>
        </mxCell>
        <mxCell id="b1VcHCO6YZUFTfwH8kM3-337" value="Ã©" style="curved=1;startArrow=ERmandOne;startSize=10;;endArrow=ERoneToMany;endSize=10;;exitX=1;exitY=0.91;entryX=0.5;entryY=0;rounded=0;" edge="1" parent="1" source="b1VcHCO6YZUFTfwH8kM3-296" target="b1VcHCO6YZUFTfwH8kM3-322">
          <mxGeometry relative="1" as="geometry">
            <Array as="points">
              <mxPoint x="618" y="1106" />
            </Array>
          </mxGeometry>
        </mxCell>
      </root>
    </mxGraphModel>
  </diagram>
</mxfile>
